<svg width="45.812500" height="34.677124" viewBox="0 0 45.8125 34.6771" fill="none" xmlns="http://www.w3.org/2000/svg" xmlns:xlink="http://www.w3.org/1999/xlink">
	<desc>
			Created with Pixso.
	</desc>
	<defs/>
	<path id="Vector" d="M34.375 0C30.3125 0 25.9375 0.833252 22.9167 3.125C19.8958 0.833252 15.5208 0 11.4583 0C8.4375 0 5.22917 0.458252 2.54167 1.64575C1.02083 2.33325 0 3.8125 0 5.5L0 29C0 31.7083 2.54167 33.7084 5.16667 33.0416C7.20833 32.5208 9.375 32.2917 11.4583 32.2917C14.7083 32.2917 18.1667 32.8334 20.9583 34.2084C22.2083 34.8334 23.625 34.8334 24.8542 34.2084C27.6458 32.8125 31.1042 32.2917 34.3542 32.2917C36.4375 32.2917 38.6042 32.5208 40.6458 33.0416C43.2708 33.7291 45.8125 31.7292 45.8125 29L45.8125 5.5C45.8125 3.8125 44.7917 2.33325 43.2708 1.64575C40.6042 0.458252 37.3958 0 34.375 0ZM41.6667 26.5208C41.6667 27.8333 40.4583 28.7917 39.1667 28.5625C37.6042 28.2708 35.9792 28.1458 34.375 28.1458C30.8333 28.1458 25.7292 29.5 22.9167 31.2708L22.9167 7.29175C25.7292 5.52075 30.8333 4.16675 34.375 4.16675C36.2917 4.16675 38.1875 4.35425 40 4.75C40.9583 4.95825 41.6667 5.8125 41.6667 6.79175L41.6667 26.5208Z" fill="#131314" fill-opacity="1.000000" fill-rule="nonzero"/>
	<path id="Vector" d="M27.0417 13.5623C26.375 13.5623 25.7709 13.1458 25.5625 12.479C25.2917 11.6665 25.75 10.7708 26.5625 10.5208C29.7709 9.479 33.9167 9.14575 37.7292 9.58325C38.5834 9.68726 39.2084 10.4583 39.1042 11.3123C39 12.1665 38.2292 12.7915 37.375 12.6873C34 12.2915 30.3125 12.604 27.5209 13.4998C27.3542 13.5208 27.1875 13.5623 27.0417 13.5623ZM27.0417 19.104C26.375 19.104 25.7709 18.6873 25.5625 18.0208C25.2917 17.2083 25.75 16.3123 26.5625 16.0623C29.75 15.0208 33.9167 14.6873 37.7292 15.1248C38.5834 15.229 39.2084 15.9998 39.1042 16.854C39 17.7083 38.2292 18.3333 37.375 18.229C34 17.8333 30.3125 18.1458 27.5209 19.0415C27.3542 19.0833 27.1875 19.104 27.0417 19.104ZM27.0417 24.6458C26.375 24.6458 25.7709 24.229 25.5625 23.5623C25.2917 22.7498 25.75 21.854 26.5625 21.604C29.75 20.5623 33.9167 20.229 37.7292 20.6665C38.5834 20.7708 39.2084 21.5415 39.1042 22.3958C39 23.2498 38.2292 23.854 37.375 23.7708C34 23.3748 30.3125 23.6873 27.5209 24.5833C27.3542 24.6248 27.1875 24.6458 27.0417 24.6458Z" fill="#131314" fill-opacity="1.000000" fill-rule="nonzero"/>
</svg>
