<svg width="8.571411" height="8.571289" viewBox="0 0 8.57141 8.57129" fill="none" xmlns="http://www.w3.org/2000/svg" xmlns:xlink="http://www.w3.org/1999/xlink">
	<desc>
			Created with Pixso.
	</desc>
	<defs/>
	<path id="Vector" d="M0.239426 0.239502C-0.0798035 0.558594 -0.0798035 1.07642 0.239426 1.39551L3.12968 4.28564L0.239441 7.17603C-0.0798035 7.49512 -0.0798035 8.01294 0.239441 8.33203C0.558685 8.65112 1.07631 8.65112 1.39551 8.33203L4.28571 5.44165L7.17592 8.33203C7.49512 8.65112 8.01274 8.65112 8.33194 8.33203C8.65123 8.0127 8.65123 7.49512 8.33194 7.17603L5.44183 4.28564L8.33194 1.39551C8.65123 1.07642 8.65123 0.558594 8.33194 0.239502C8.01274 -0.079834 7.49512 -0.079834 7.17592 0.239502L4.28571 3.12964L1.39551 0.239502C1.07631 -0.079834 0.55867 -0.079834 0.239426 0.239502Z" fill="#000000" fill-opacity="1.000000" fill-rule="nonzero"/>
</svg>
