<svg width="45.833313" height="31.250000" viewBox="0 0 45.8333 31.25" fill="none" xmlns="http://www.w3.org/2000/svg" xmlns:xlink="http://www.w3.org/1999/xlink">
	<desc>
			Created with Pixso.
	</desc>
	<defs/>
	<path id="Vector" d="M22.9167 0C12.5 0 3.60419 6.47917 0 15.625C3.60419 24.7708 12.5 31.25 22.9167 31.25C33.3333 31.25 42.2292 24.7708 45.8333 15.625C42.2292 6.47917 33.3333 0 22.9167 0ZM22.9167 26.0417C17.1667 26.0417 12.5 21.375 12.5 15.625C12.5 9.875 17.1667 5.20833 22.9167 5.20833C28.6667 5.20833 33.3333 9.875 33.3333 15.625C33.3333 21.375 28.6667 26.0417 22.9167 26.0417ZM22.9167 9.375C19.4583 9.375 16.6667 12.1667 16.6667 15.625C16.6667 19.0833 19.4583 21.875 22.9167 21.875C26.375 21.875 29.1667 19.0833 29.1667 15.625C29.1667 12.1667 26.375 9.375 22.9167 9.375Z" fill="#131314" fill-opacity="1.000000" fill-rule="nonzero"/>
</svg>
