<svg width="41.666687" height="20.833374" viewBox="0 0 41.6667 20.8334" fill="none" xmlns="http://www.w3.org/2000/svg" xmlns:xlink="http://www.w3.org/1999/xlink">
	<desc>
			Created with Pixso.
	</desc>
	<defs/>
	<path id="Vector" d="M25 4.16663L39.5833 4.16663C40.7292 4.16663 41.6667 3.22913 41.6667 2.08337C41.6667 0.9375 40.7292 0 39.5833 0L25 0C23.8542 0 22.9167 0.9375 22.9167 2.08337C22.9167 3.22913 23.8542 4.16663 25 4.16663ZM39.5833 16.6666L25 16.6666C23.8542 16.6666 22.9167 17.6041 22.9167 18.75C22.9167 19.8959 23.8542 20.8334 25 20.8334L39.5833 20.8334C40.7292 20.8334 41.6667 19.8959 41.6667 18.75C41.6667 17.6041 40.7292 16.6666 39.5833 16.6666ZM39.5833 8.33337L31.25 8.33337C30.1042 8.33337 29.1667 9.27087 29.1667 10.4166C29.1667 11.5625 30.1042 12.5 31.25 12.5L39.5833 12.5C40.7292 12.5 41.6667 11.5625 41.6667 10.4166C41.6667 9.27087 40.7292 8.33337 39.5833 8.33337ZM14.2708 1.77087C13.625 1.125 12.5 1.58337 12.5 2.52087L12.5 8.33337L2.08331 8.33337C0.9375 8.33337 0 9.27087 0 10.4166C0 11.5625 0.9375 12.5 2.08331 12.5L12.5 12.5L12.5 18.3125C12.5 19.25 13.625 19.7084 14.2708 19.0416L22.1667 11.1459C22.5833 10.7291 22.5833 10.0834 22.1667 9.66663L14.2708 1.77087Z" fill="#131314" fill-opacity="1.000000" fill-rule="nonzero"/>
</svg>
