<svg width="45.833332" height="35.416748" viewBox="0 0 45.8333 35.4167" fill="none" xmlns="http://www.w3.org/2000/svg" xmlns:xlink="http://www.w3.org/1999/xlink">
	<desc>
			Created with Pixso.
	</desc>
	<defs/>
	<path id="Vector" d="M41.6667 10.4167C38.6458 10.4167 36.9583 13.4167 37.6458 15.6459L30.25 23.0626C29.625 22.8751 28.7083 22.8751 28.0833 23.0626L22.7708 17.7501C23.4792 15.5209 21.7917 12.5001 18.75 12.5001C15.7292 12.5001 14.0208 15.5001 14.7292 17.7501L5.22917 27.2292C3 26.5417 0 28.2292 0 31.2501C0 33.5417 1.875 35.4167 4.16667 35.4167C7.1875 35.4167 8.875 32.4167 8.1875 30.1876L17.6667 20.6876C18.2917 20.8751 19.2083 20.8751 19.8333 20.6876L25.1458 26.0001C24.4375 28.2292 26.125 31.2501 29.1667 31.2501C32.1875 31.2501 33.8958 28.2501 33.1875 26.0001L40.6042 18.6042C42.8333 19.2917 45.8333 17.6042 45.8333 14.5834C45.8333 12.2917 43.9583 10.4167 41.6667 10.4167Z" fill="#131314" fill-opacity="1.000000" fill-rule="nonzero"/>
	<path id="Vector" d="M29.1667 12.5L31.125 8.1875L35.4167 6.25L31.125 4.3125L29.1667 0L27.25 4.3125L22.9167 6.25L27.25 8.1875L29.1667 12.5ZM5.20833 16.6667L6.25 12.5L10.4167 11.4583L6.25 10.4167L5.20833 6.25L4.16667 10.4167L0 11.4583L4.16667 12.5L5.20833 16.6667Z" fill="#131314" fill-opacity="1.000000" fill-rule="nonzero"/>
</svg>
