<svg width="20.000000" height="16.666626" viewBox="0 0 20 16.6666" fill="none" xmlns="http://www.w3.org/2000/svg" xmlns:xlink="http://www.w3.org/1999/xlink">
	<desc>
			Created with Pixso.
	</desc>
	<defs/>
	<path id="Vector" d="M20 1.97302C19.2651 2.30768 18.4739 2.534 17.644 2.63513C18.4915 2.11511 19.1419 1.29047 19.4482 0.308167C18.6548 0.789673 17.7777 1.14001 16.841 1.32782C16.0944 0.510437 15.0273 0 13.8464 0C11.5818 0 9.74469 1.88397 9.74469 4.20728C9.74469 4.53711 9.77988 4.85736 9.85031 5.16553C6.44009 4.98975 3.41727 3.31647 1.39227 0.768005C1.03891 1.3916 0.837006 2.11511 0.837006 2.8855C0.837006 4.34454 1.56131 5.63263 2.66245 6.38739C1.99097 6.36694 1.35703 6.17554 0.802948 5.86255L0.802948 5.91431C0.802948 7.95355 2.21753 9.65448 4.09579 10.0397C3.75183 10.1384 3.3891 10.1878 3.01462 10.1878C2.75049 10.1878 2.49222 10.1625 2.24219 10.1132C2.76459 11.784 4.2789 13.0011 6.07501 13.0336C4.67099 14.1627 2.90073 14.8356 0.979034 14.8356C0.64801 14.8356 0.320465 14.8163 0 14.7779C1.81604 15.9696 3.97369 16.6666 6.28983 16.6666C13.8381 16.6666 17.9644 10.2564 17.9644 4.69604C17.9644 4.51306 17.9609 4.33008 17.9539 4.1507C18.7556 3.55725 19.4518 2.81689 20 1.97302Z" fill="#00D1FF" fill-opacity="1.000000" fill-rule="evenodd"/>
</svg>
